/* XPM */
static char *f0c9a09dd8c54ab9ac03ebb0528c894fFZay3RIztud5pdT9[] = {
/* columns rows colors chars-per-pixel */
"32 32 2 1 ",
"  c #D64B24",
". c gray75",
/* pixels */
"                                ",
"                                ",
"                                ",
"                                ",
"                                ",
"                                ",
"        ...............         ",
"        ...............         ",
"        ...............         ",
"        ...............         ",
"        ....                    ",
"        ....                    ",
"        ....                    ",
"        ....                    ",
"        .............           ",
"        .............           ",
"        .............           ",
"        .............           ",
"        ....                    ",
"        ....                    ",
"        ....                    ",
"        ....                    ",
"        ...............         ",
"        ...............         ",
"        ...............         ",
"        ...............         ",
"                                ",
"                                ",
"                                ",
"                                ",
"                                ",
"                                "
};
