/* XPM */
static char *_b36db1e370d4640f3784551672738bf8frTdtS95OcRTpth[] = {
/* columns rows colors chars-per-pixel */
"32 32 2 1 ",
"  c #D64B24",
". c gray75",
/* pixels */
"                                ",
"                                ",
"                                ",
"                                ",
"                                ",
"                                ",
"        ....       ....         ",
"        ....       ....         ",
"        .....      ....         ",
"        ......     ....         ",
"        ......     ....         ",
"        .......    ....         ",
"        ........   ....         ",
"        .........  ....         ",
"        .......... ....         ",
"        .......... ....         ",
"        .... ..........         ",
"        ....  .........         ",
"        ....  .........         ",
"        ....   ........         ",
"        ....    .......         ",
"        ....     ......         ",
"        ....     ......         ",
"        ....      .....         ",
"        ....       ....         ",
"        ....       ....         ",
"                                ",
"                                ",
"                                ",
"                                ",
"                                ",
"                                "
};
