/* XPM */
static char *result[] = {
/* columns rows colors chars-per-pixel */
"32 32 2 1 ",
"  c #D4532F",
". c gray75",
/* pixels */
"                                ",
"                                ",
"                                ",
"                                ",
"                                ",
"                                ",
"            .......             ",
"          ...........           ",
"         .............          ",
"         .............          ",
"        ......   ......         ",
"        .....     .....         ",
"        .....      ....         ",
"        ......      ..          ",
"         .......                ",
"           ......               ",
"            .......             ",
"              .......           ",
"                ......          ",
"         ...      .....         ",
"        .....     .....         ",
"        ......   ......         ",
"        ...............         ",
"         .............          ",
"          ...........           ",
"            .......             ",
"                                ",
"                                ",
"                                ",
"                                ",
"                                ",
"                                "
};
