/* XPM */
static char *_9d40e95935c4101a6ca7edb8e99a863wYp3HsVpYMqOneVO[] = {
/* columns rows colors chars-per-pixel */
"32 32 7 1 ",
"  c #551574",
". c #BA1717",
"X c #1E8B39",
"o c #DD8118",
"O c #9AD029",
"+ c #1F69AE",
"@ c #A39CA7",
/* pixels */
"ooo@@@@@@...@@@@OOO@@@@@@   @@@@",
"ooooooo.....@@@OOOO@@@@@@   @@@@",
"ooooooo.....o@@OOOO@@@@@    @@@@",
"@ooooo......oo@OOOO@@@@@    @@@@",
"@@@@@@....oooo@OOO@@++++    @@@@",
"@@@@@....@oooo@OOO+++++    +++@@",
"@@@@@....@@ooooOOO+++++    +++@@",
"@@@@@....@@ooooOOO++++     +++@@",
"@@@@@...@@@@oooOOO++      OO++@@",
"@@@@@...@@               OOOO+@@",
"@@@@@....               OOOOO+@@",
"@@@@o...               +OOOOO+@@",
"@@@oo...     ooOOOOOOOOOOOOOO++@",
"@@oooo.     ooooOOOOOOOOOOOOXXXX",
"@@oooo.    ooooooOOOOOOOOOOXXXXX",
"@@ooo@.    oooo@oOOOXXXXXXXXXXXX",
"@@oooo@   oooo@@XOOOXXXXXXXXX+++",
"@@oooo@   ooooXXXOOOOXXXX@@@++++",
"@@@oooo    ooXXXXOOOOoo@@@@@@+++",
"@@.....       XXXXOOOOo@@@@@@+++",
"@......           OOOOo@@@@@@+++",
"........            OOO@@@@@@@++",
".....@.....          OO@@@@@@@++",
"...@@....@X....      OOOO@@@@@OO",
"...@@....@XX.....     OOOOOOOOOO",
".........@XXX@....    OOOOOOOOOO",
"........@@XXX@....@   OOOOOOOOOO",
".......@@@XXX@@....    ooooooooo",
"......@@@@XXX@@....    ooooooooo",
"@@@@@@@@@@XXX@@@...    ooooooooo",
"@@@@@@@@@@XXX@@@@...   @@@@@@@@@",
"@@@@@@@@@@XXX@@@@...    @@@@@@@@"
};
