/* XPM */
static char *_9a174720b5d4530e326f009d3ed7ea77PSjDiZ3EoS6pEg6[] = {
/* columns rows colors chars-per-pixel */
"32 32 2 1 ",
"  c #D64B24",
". c gray75",
/* pixels */
"                                ",
"                                ",
"                                ",
"                                ",
"                                ",
"                                ",
"        ....       ....         ",
"        ....       ....         ",
"        ....       ....         ",
"        ....       ....         ",
"        ....  ...  ....         ",
"        ....  ...  ....         ",
"        ....  ...  ....         ",
"        .... ..... ....         ",
"        .... ..... ....         ",
"        ...............         ",
"        ...............         ",
"         .............          ",
"         .............          ",
"         ...... ......          ",
"         ...... ......          ",
"         .....   .....          ",
"         .....   .....          ",
"         ....     ....          ",
"         ....     ....          ",
"         ....     ....          ",
"                                ",
"                                ",
"                                ",
"                                ",
"                                ",
"                                "
};
