/* XPM */
static char *result[] = {
/* columns rows colors chars-per-pixel */
"32 32 2 1 ",
"  c #1B9EC3",
". c #D2D8D9",
/* pixels */
"                                ",
"                                ",
"                                ",
"                                ",
"                                ",
"                                ",
"        ....       ....         ",
"        ....       ....         ",
"        ....       ....         ",
"        ....       ....         ",
"        ....  ...  ....         ",
"        ....  ...  ....         ",
"        ....  ...  ....         ",
"        .... ..... ....         ",
"        .... ..... ....         ",
"        ...............         ",
"        ...............         ",
"         .............          ",
"         .............          ",
"         ...... ......          ",
"         ...... ......          ",
"         .....   .....          ",
"         .....   .....          ",
"         ....     ....          ",
"         ....     ....          ",
"         ....     ....          ",
"                                ",
"                                ",
"                                ",
"                                ",
"                                ",
"                                "
};
